<?xml version="1.0" encoding="UTF-8" standalone="no"?>
<!-- Created with Inkscape (http://www.inkscape.org/) -->

<svg
   xmlns:dc="http://purl.org/dc/elements/1.1/"
   xmlns:cc="http://creativecommons.org/ns#"
   xmlns:rdf="http://www.w3.org/1999/02/22-rdf-syntax-ns#"
   xmlns:svg="http://www.w3.org/2000/svg"
   xmlns="http://www.w3.org/2000/svg"
   xmlns:sodipodi="http://sodipodi.sourceforge.net/DTD/sodipodi-0.dtd"
   xmlns:inkscape="http://www.inkscape.org/namespaces/inkscape"
   width="100"
   height="100"
   viewBox="0 0 100 100"
   id="svg4308"
   version="1.1"
   inkscape:version="0.91 r13725"
   sodipodi:docname="dashboard.svg">
  <defs
     id="defs4310" />
  <sodipodi:namedview
     id="base"
     pagecolor="#ffffff"
     bordercolor="#666666"
     borderopacity="1.0"
     inkscape:pageopacity="0.0"
     inkscape:pageshadow="2"
     inkscape:zoom="4.7233227"
     inkscape:cx="50.788661"
     inkscape:cy="50.300309"
     inkscape:document-units="px"
     inkscape:current-layer="layer1"
     showgrid="false"
     units="px"
     inkscape:window-width="1280"
     inkscape:window-height="1002"
     inkscape:window-x="-8"
     inkscape:window-y="-8"
     inkscape:window-maximized="1" />
  <metadata
     id="metadata4313">
    <rdf:RDF>
      <cc:Work
         rdf:about="">
        <dc:format>image/svg+xml</dc:format>
        <dc:type
           rdf:resource="http://purl.org/dc/dcmitype/StillImage" />
        <dc:title></dc:title>
      </cc:Work>
    </rdf:RDF>
  </metadata>
  <g
     inkscape:label="Calque 1"
     inkscape:groupmode="layer"
     id="layer1"
     transform="translate(0,-952.36216)">
    <path
       id="path5-5"
       d="m 49.999995,963.38292 c -26.565723,0 -48.1021188,21.53639 -48.1021188,48.10208 0,11.2841 3.8962743,21.6526 10.4017068,29.8566 l 75.400808,0 c 6.505448,-8.204 10.401722,-18.5725 10.401722,-29.8566 0,-26.56569 -21.536411,-48.10208 -48.102118,-48.10208"
       style="fill:#d9d9dc;fill-opacity:1"
       inkscape:connector-curvature="0" />
    <g
       id="g7"
       transform="matrix(0.1878989,0,0,0.1878989,1.8978762,954.26005)"
       style="fill:#2d4059;fill-opacity:1">
      <path
         id="path9-1"
         d="m 59.797,384.487 c -1.836,-4.511 -6.991,-6.7 -11.511,-4.846 L 15.8,392.882 c 2.039,5.535 4.193,11.026 6.603,16.375 L 54.95,395.998 c 4.512,-1.845 6.683,-6.991 4.847,-11.511"
         style="fill:#2d4059;fill-opacity:1"
         inkscape:connector-curvature="0" />
      <path
         id="path11-1"
         d="m 79.448,304.552 c 0,-4.873 -3.955,-8.828 -8.828,-8.828 l -70.4,0 c -0.096,2.94 -0.22,5.87 -0.22,8.828 0,2.975 0.282,5.879 0.38,8.828 l 70.241,0 c 4.873,-10e-4 8.827,-3.955 8.827,-8.828"
         style="fill:#2d4059;fill-opacity:1"
         inkscape:connector-curvature="0" />
      <path
         id="path13-9"
         d="m 60.737,222.34 c 1.889,-4.493 -0.212,-9.675 -4.705,-11.564 L 23.635,197.137 c -2.472,5.323 -4.767,10.743 -6.868,16.26 l 32.406,13.656 c 1.121,0.468 2.286,0.689 3.425,0.689 3.443,0.001 6.718,-2.029 8.139,-5.402"
         style="fill:#2d4059;fill-opacity:1"
         inkscape:connector-curvature="0" />
      <path
         id="path15-7"
         d="m 68.888,129.923 24.823,24.823 c 1.721,1.721 3.981,2.578 6.241,2.578 2.251,0 4.511,-0.856 6.241,-2.578 3.443,-3.452 3.443,-9.039 0,-12.491 L 81.37,117.44 c -4.299,4.017 -8.466,8.184 -12.482,12.483"
         style="fill:#2d4059;fill-opacity:1"
         inkscape:connector-curvature="0" />
      <path
         id="path17"
         d="m 164.556,103.504 c 1.395,3.425 4.696,5.5 8.183,5.5 1.103,0 2.233,-0.212 3.328,-0.653 4.511,-1.845 6.682,-6.991 4.846,-11.511 L 167.619,64.23 c -5.544,2.039 -10.964,4.317 -16.322,6.727 l 13.259,32.547 z"
         style="fill:#2d4059;fill-opacity:1"
         inkscape:connector-curvature="0" />
      <path
         id="path19"
         d="m 256,128 c 4.873,0 8.828,-3.955 8.828,-8.828 l 0,-70.4 c -2.94,-0.097 -5.87,-0.221 -8.828,-0.221 -2.957,0 -5.888,0.124 -8.828,0.221 l 0,70.4 c 0,4.873 3.955,8.828 8.828,8.828"
         style="fill:#2d4059;fill-opacity:1"
         inkscape:connector-curvature="0" />
      <path
         id="path21"
         d="m 338.211,109.289 c 1.121,0.477 2.278,0.697 3.425,0.697 3.443,0 6.718,-2.03 8.139,-5.402 l 13.639,-32.397 c -5.323,-2.472 -10.743,-4.767 -16.26,-6.868 l -13.656,32.406 c -1.89,4.502 0.22,9.675 4.713,11.564"
         style="fill:#2d4059;fill-opacity:1"
         inkscape:connector-curvature="0" />
      <path
         id="path23"
         d="m 430.629,117.44 -24.823,24.823 c -3.443,3.443 -3.443,9.031 0,12.482 1.73,1.721 3.99,2.586 6.25,2.586 2.251,0 4.511,-0.865 6.241,-2.586 l 24.814,-24.823 c -4.016,-4.299 -8.183,-8.466 -12.482,-12.482"
         style="fill:#2d4059;fill-opacity:1"
         inkscape:connector-curvature="0" />
    </g>
    <g
       id="g25"
       transform="matrix(0.1878989,0,0,0.1878989,1.8978762,954.26005)"
       style="fill:#a1b870;fill-opacity:1">
      <path
         id="path27"
         d="m 463.711,229.462 32.618,-13.286 c -2.048,-5.553 -4.326,-10.973 -6.735,-16.331 l -32.547,13.259 c -4.511,1.845 -6.682,6.991 -4.846,11.511 1.395,3.425 4.705,5.5 8.183,5.5 1.112,0 2.233,-0.212 3.327,-0.653"
         style="fill:#a1b870;fill-opacity:1"
         inkscape:connector-curvature="0" />
      <path
         id="path29"
         d="m 512,304.552 c 0,-2.957 -0.124,-5.888 -0.221,-8.828 l -70.4,0 c -4.873,0 -8.828,3.955 -8.828,8.828 0,4.873 3.955,8.828 8.828,8.828 l 70.241,0 c 0.097,-2.949 0.38,-5.853 0.38,-8.828"
         style="fill:#a1b870;fill-opacity:1"
         inkscape:connector-curvature="0" />
      <path
         id="path31"
         d="m 495.089,395.642 -32.265,-13.586 c -4.502,-1.889 -9.666,0.212 -11.564,4.705 -1.889,4.493 0.221,9.675 4.705,11.564 l 32.335,13.621 c 2.472,-5.331 4.679,-10.787 6.789,-16.304"
         style="fill:#a1b870;fill-opacity:1"
         inkscape:connector-curvature="0" />
    </g>
    <polygon
       id="polygon33"
       points="335.444,375.172 176.547,375.172 176.547,428.138 335.444,428.138 "
       style="fill:#ffffff"
       transform="matrix(0.1878989,0,0,0.1878989,1.8978762,954.26005)" />
    <path
       id="path35"
       d="m 47.090753,1005.5204 c -2.635649,1.2871 -4.291041,4.2694 -3.547903,7.5272 0.547359,2.3985 2.496419,4.3457 4.893086,4.8931 3.259288,0.7448 6.241603,-0.9123 7.52872,-3.5479 1.907548,-3.9046 3.657449,-7.8854 5.893262,-11.6126 l 4.728852,-7.88213 -7.882161,4.72884 c -3.726798,2.23599 -7.70763,3.98419 -11.613856,5.89349"
       style="fill:#a1b870;fill-opacity:1"
       inkscape:connector-curvature="0" />
  </g>
</svg>
