<?xml version="1.0" encoding="UTF-8" standalone="no"?>
<!-- Created with Inkscape (http://www.inkscape.org/) -->

<svg
   xmlns:dc="http://purl.org/dc/elements/1.1/"
   xmlns:cc="http://creativecommons.org/ns#"
   xmlns:rdf="http://www.w3.org/1999/02/22-rdf-syntax-ns#"
   xmlns:svg="http://www.w3.org/2000/svg"
   xmlns="http://www.w3.org/2000/svg"
   xmlns:sodipodi="http://sodipodi.sourceforge.net/DTD/sodipodi-0.dtd"
   xmlns:inkscape="http://www.inkscape.org/namespaces/inkscape"
   width="100"
   height="100"
   viewBox="0 0 100 100"
   id="svg4308"
   version="1.1"
   inkscape:version="0.91 r13725"
   sodipodi:docname="document.svg">
  <defs
     id="defs4310" />
  <sodipodi:namedview
     id="base"
     pagecolor="#ffffff"
     bordercolor="#666666"
     borderopacity="1.0"
     inkscape:pageopacity="0.0"
     inkscape:pageshadow="2"
     inkscape:zoom="4.7233227"
     inkscape:cx="50.788661"
     inkscape:cy="33.36308"
     inkscape:document-units="px"
     inkscape:current-layer="layer1"
     showgrid="false"
     units="px"
     inkscape:window-width="1280"
     inkscape:window-height="1002"
     inkscape:window-x="-8"
     inkscape:window-y="-8"
     inkscape:window-maximized="1" />
  <metadata
     id="metadata4313">
    <rdf:RDF>
      <cc:Work
         rdf:about="">
        <dc:format>image/svg+xml</dc:format>
        <dc:type
           rdf:resource="http://purl.org/dc/dcmitype/StillImage" />
        <dc:title></dc:title>
      </cc:Work>
    </rdf:RDF>
  </metadata>
  <g
     inkscape:label="Calque 1"
     inkscape:groupmode="layer"
     id="layer1"
     transform="translate(0,-952.36216)">
    <g
       id="g5067"
       transform="matrix(1.0226653,0,0,1.0226653,-1.7468438,-18.424522)">
      <rect
         id="rect3"
         height="70.057236"
         width="93.409653"
         style="fill:#f2f2f2;fill-opacity:1"
         y="963.1344"
         x="3.8951538" />
      <g
         id="g5"
         transform="matrix(0.18244073,0,0,0.18244073,3.8951235,951.45823)">
        <rect
           id="rect7"
           height="11"
           width="186.39999"
           style="fill:#d8d6d6"
           y="132.89999"
           x="48" />
        <rect
           id="rect9"
           height="11"
           width="186.39999"
           style="fill:#d8d6d6"
           y="164.89999"
           x="48" />
        <rect
           id="rect11"
           height="11"
           width="186.39999"
           style="fill:#d8d6d6"
           y="196.89999"
           x="48" />
        <rect
           id="rect13"
           height="11"
           width="186.39999"
           style="fill:#d8d6d6"
           y="228.89999"
           x="48" />
        <rect
           id="rect15"
           height="11"
           width="208"
           style="fill:#d8d6d6"
           y="260.89999"
           x="48" />
        <rect
           id="rect17"
           height="11"
           width="240"
           style="fill:#d8d6d6"
           y="292.89999"
           x="48" />
        <rect
           id="rect19"
           height="11"
           width="421.60001"
           style="fill:#d8d6d6"
           y="324.89999"
           x="48" />
        <rect
           id="rect21"
           height="11"
           width="421.60001"
           style="fill:#d8d6d6"
           y="356.89999"
           x="48" />
        <rect
           id="rect23"
           height="11"
           width="421.60001"
           style="fill:#d8d6d6"
           y="388.89999"
           x="48" />
      </g>
      <path
         id="path25"
         d="m 72.419867,978.05809 c -5.199558,0 -9.377452,4.17789 -9.377452,9.37745 0,5.19956 4.177894,9.37745 9.377452,9.37745 5.199557,0 9.377451,-4.17789 9.377451,-9.37745 0,-5.19956 -4.177894,-9.37745 -9.377451,-9.37745 z m 0,13.61008 c -2.335237,0 -4.232628,-1.89739 -4.232628,-4.23263 0,-2.33525 1.897391,-4.23262 4.232628,-4.23262 2.335236,0 4.232627,1.89737 4.232627,4.23262 0.145949,2.33524 -1.75143,4.23263 -4.232627,4.23263 z"
         style="fill:#2d4059;fill-opacity:1"
         inkscape:connector-curvature="0" />
      <path
         id="path27-8"
         d="m 89.532806,990.06269 0,-4.9624 -6.130006,-0.5838 c -0.145961,-0.72977 -0.437858,-1.45952 -0.875716,-2.18929 l 3.79477,-4.67049 -3.502872,-3.50286 -4.524525,3.64883 C 77.56469,977.36481 76.834936,976.92695 75.95922,976.781 l -0.583818,-5.8381 -4.962382,0 -0.583818,5.40024 c -1.021663,0.29191 -1.897379,0.58381 -2.773094,1.02167 l -4.086667,-3.3569 -3.502872,3.50286 3.210963,3.94071 c -0.583806,0.87572 -1.021664,1.89738 -1.313573,2.91906 l -4.962394,0.72975 0,4.9624 5.108343,0.43786 c 0.291909,1.02166 0.729767,2.04333 1.313573,2.91905 l -3.210952,3.94072 3.502861,3.50288 4.086667,-3.35693 c 0.875715,0.43785 1.75143,0.87571 2.773106,1.02166 l 0.583806,5.40027 4.816433,0 0.583818,-5.69217 c 0.875716,-0.29191 1.60547,-0.58381 2.335237,-1.02167 l 4.524525,3.79474 3.502872,-3.50283 -3.94073,-4.67049 c 0.291909,-0.72975 0.583818,-1.31357 0.875715,-2.18929 l 6.275967,-0.5838 z m -17.076446,5.07185 c -4.232628,0 -7.735488,-3.50286 -7.735488,-7.73549 0,-4.23263 3.50286,-7.73549 7.735488,-7.73549 4.232615,0 7.735476,3.50286 7.735476,7.73549 0,4.23263 -3.502861,7.73549 -7.735476,7.73549 z"
         style="fill:#3db39e;fill-opacity:1"
         inkscape:connector-curvature="0" />
    </g>
  </g>
</svg>
