<?xml version="1.0" encoding="UTF-8" standalone="no"?>
<!-- Created with Inkscape (http://www.inkscape.org/) -->

<svg
   xmlns:dc="http://purl.org/dc/elements/1.1/"
   xmlns:cc="http://creativecommons.org/ns#"
   xmlns:rdf="http://www.w3.org/1999/02/22-rdf-syntax-ns#"
   xmlns:svg="http://www.w3.org/2000/svg"
   xmlns="http://www.w3.org/2000/svg"
   xmlns:sodipodi="http://sodipodi.sourceforge.net/DTD/sodipodi-0.dtd"
   xmlns:inkscape="http://www.inkscape.org/namespaces/inkscape"
   width="100"
   height="100"
   viewBox="0 0 100 100"
   id="svg4162"
   version="1.1"
   inkscape:version="0.91 r13725"
   sodipodi:docname="eye.svg">
  <defs
     id="defs4164" />
  <sodipodi:namedview
     id="base"
     pagecolor="#ffffff"
     bordercolor="#666666"
     borderopacity="1.0"
     inkscape:pageopacity="0.0"
     inkscape:pageshadow="2"
     inkscape:zoom="4.7686591"
     inkscape:cx="65.659915"
     inkscape:cy="44.951788"
     inkscape:document-units="px"
     inkscape:current-layer="layer1"
     showgrid="false"
     units="px"
     inkscape:window-width="1280"
     inkscape:window-height="1002"
     inkscape:window-x="-8"
     inkscape:window-y="-8"
     inkscape:window-maximized="1" />
  <metadata
     id="metadata4167">
    <rdf:RDF>
      <cc:Work
         rdf:about="">
        <dc:format>image/svg+xml</dc:format>
        <dc:type
           rdf:resource="http://purl.org/dc/dcmitype/StillImage" />
        <dc:title></dc:title>
      </cc:Work>
    </rdf:RDF>
  </metadata>
  <g
     inkscape:label="Calque 1"
     inkscape:groupmode="layer"
     id="layer1"
     transform="translate(0,-952.36216)">
    <g
       id="g4749"
       transform="matrix(1.1209848,0,0,1.1209848,0.39951758,-115.96567)">
      <circle
         style="opacity:1;fill:#ffffff;fill-opacity:1;stroke:none;stroke-width:3;stroke-linecap:round;stroke-linejoin:round;stroke-miterlimit:4;stroke-dasharray:none;stroke-dashoffset:0;stroke-opacity:1"
         id="path5086-9"
         cx="48.929291"
         cy="1012.3256"
         r="26.921946" />
      <circle
         style="opacity:1;fill:#2d4059;fill-opacity:1;stroke:none;stroke-width:3;stroke-linecap:round;stroke-linejoin:round;stroke-miterlimit:4;stroke-dasharray:none;stroke-dashoffset:0;stroke-opacity:1"
         id="path5086-0-8"
         cx="48.737221"
         cy="1011.809"
         r="14.920553" />
      <path
         id="path3-4"
         d="m 44.24723,954.29738 c -23.900553,0 -43.3324219,19.43189 -43.3324219,43.33244 0,23.90058 19.4318689,43.33238 43.3324219,43.33238 23.90055,0 43.33244,-19.4318 43.33244,-43.33238 0,-23.90055 -19.43206,-43.33244 -43.33244,-43.33244 z"
         style="fill:#ededed"
         inkscape:connector-curvature="0" />
      <path
         id="path5-0"
         d="m 44.24723,973.2553 c 13.4736,0 24.37452,10.90076 24.37452,24.37452 0,13.47378 -10.90075,24.37448 -24.37452,24.37448 -13.473744,0 -24.374501,-10.9007 -24.374501,-24.37448 0,-13.47376 10.900757,-24.37452 24.374501,-24.37452 z"
         style="fill:#3db39e;fill-opacity:1"
         inkscape:connector-curvature="0" />
      <path
         id="path7-4"
         d="m 52.37197,982.73419 c 2.97905,0 5.41658,2.43736 5.41658,5.41658 0,2.97924 -2.43737,5.4166 -5.41658,5.4166 -2.97908,0 -5.41661,-2.43736 -5.41661,-5.4166 0,-2.97922 2.43753,-5.41658 5.41661,-5.41658 z"
         style="fill:#9ed9cf"
         inkscape:connector-curvature="0" />
      <path
         id="path9-2"
         d="m 44.24723,985.44247 c 6.70301,0 12.18717,5.48434 12.18717,12.18716 0,6.70287 -5.48432,12.18717 -12.18717,12.18717 -6.702824,0 -12.187168,-5.4166 -12.187168,-12.18717 0,-6.77056 5.484154,-12.18716 12.187168,-12.18716 z"
         style="fill:#324d5b"
         inkscape:connector-curvature="0" />
      <path
         id="path11-6"
         d="m 47.42931,985.8487 c -0.33849,0.677 -0.47395,1.48963 -0.47395,2.30207 0,2.97907 2.43737,5.4166 5.41661,5.4166 1.08337,0 2.16659,-0.33849 2.97905,-0.88018 -1.4217,-3.31773 -4.3332,-5.82283 -7.92171,-6.83849 z"
         style="fill:#99a6ad"
         inkscape:connector-curvature="0" />
      <path
         id="path13-91"
         d="m 46.27838,1007.7857 c -6.70301,0 -12.187187,-5.4844 -12.187187,-12.1872 0,-2.84376 1.015661,-5.48432 2.640585,-7.51545 -2.843783,2.23433 -4.671716,5.68735 -4.671716,9.54658 0,6.70297 5.484344,12.18717 12.187168,12.18717 3.85925,0 7.31228,-1.8281 9.54661,-4.6717 -2.0313,1.6928 -4.67186,2.6406 -7.51546,2.6406 z"
         style="fill:#2b424d"
         inkscape:connector-curvature="0" />
      <path
         id="path15-77"
         d="m 47.63251,1017.9417 c -13.473576,0 -24.374499,-10.9008 -24.374499,-24.37449 0,-4.94264 1.489608,-9.61435 4.062452,-13.47361 -4.604141,4.46869 -7.447734,10.63001 -7.447734,17.53603 0,13.47357 10.900757,24.37447 24.374501,24.37447 8.46339,0 15.97887,-4.3332 20.31207,-10.9007 -4.40111,4.1977 -10.35923,6.8383 -16.92679,6.8383 z"
         style="fill:#37a18e"
         inkscape:connector-curvature="0" />
    </g>
  </g>
</svg>
