<?xml version="1.0" encoding="UTF-8" standalone="no"?>
<!-- Created with Inkscape (http://www.inkscape.org/) -->

<svg
   xmlns:dc="http://purl.org/dc/elements/1.1/"
   xmlns:cc="http://creativecommons.org/ns#"
   xmlns:rdf="http://www.w3.org/1999/02/22-rdf-syntax-ns#"
   xmlns:svg="http://www.w3.org/2000/svg"
   xmlns="http://www.w3.org/2000/svg"
   xmlns:sodipodi="http://sodipodi.sourceforge.net/DTD/sodipodi-0.dtd"
   xmlns:inkscape="http://www.inkscape.org/namespaces/inkscape"
   width="100"
   height="100"
   viewBox="0 0 100 100"
   id="svg4308"
   version="1.1"
   inkscape:version="0.91 r13725"
   sodipodi:docname="globe.svg">
  <defs
     id="defs4310" />
  <sodipodi:namedview
     id="base"
     pagecolor="#ffffff"
     bordercolor="#666666"
     borderopacity="1.0"
     inkscape:pageopacity="0.0"
     inkscape:pageshadow="2"
     inkscape:zoom="4.7233227"
     inkscape:cx="33.597852"
     inkscape:cy="50.300309"
     inkscape:document-units="px"
     inkscape:current-layer="layer1"
     showgrid="false"
     units="px"
     inkscape:window-width="1280"
     inkscape:window-height="1002"
     inkscape:window-x="-8"
     inkscape:window-y="-8"
     inkscape:window-maximized="1" />
  <metadata
     id="metadata4313">
    <rdf:RDF>
      <cc:Work
         rdf:about="">
        <dc:format>image/svg+xml</dc:format>
        <dc:type
           rdf:resource="http://purl.org/dc/dcmitype/StillImage" />
        <dc:title />
      </cc:Work>
    </rdf:RDF>
  </metadata>
  <g
     inkscape:label="Calque 1"
     inkscape:groupmode="layer"
     id="layer1"
     transform="translate(0,-952.36216)">
    <g
       style="display:inline"
       id="g5471"
       transform="matrix(1.2788717,0,0,1.2788717,-372.91802,455.87173)">
      <circle
         style="fill:#2d4059;fill-opacity:1"
         cx="330.6962"
         cy="427.32233"
         r="31.126589"
         id="circle5" />
      <path
         inkscape:connector-curvature="0"
         style="fill:#48b19b"
         d="m 361.82279,427.32234 c 0,-6.24514 -1.8389,-12.06046 -5.00518,-16.9342 0,0 -1.77568,2.59396 -1.44204,4.2613 0.3334,1.66758 2.29255,1.79489 2.09132,3.01806 -0.20123,1.22318 -1.64643,-0.35005 -3.42538,2.8735 -1.77884,3.22379 -0.88906,7.67173 1.66746,8.00464 2.55663,0.33266 6.11382,-1.2233 6.11382,-1.2233 z"
         id="path7-1" />
      <path
         inkscape:connector-curvature="0"
         style="fill:#48b19b"
         d="m 338.87058,397.28032 c 3.62296,0.9834 6.9833,2.6049 9.95285,4.73598 0,0 -3.60923,-0.5953 -4.97649,0.62715 -1.36714,1.22282 -3.36106,4.11358 -4.97648,0 -1.61518,-4.11333 1.2e-4,-5.36313 1.2e-4,-5.36313 z"
         id="path9-6" />
      <path
         inkscape:connector-curvature="0"
         style="fill:#48b19b"
         d="m 307.29277,406.80055 c 5.70468,-6.50071 14.07457,-10.6048 23.40343,-10.6048 0,0 -2.11175,1.27862 1.89021,3.4463 4.00208,2.16792 2.16768,3.16822 1.33394,3.83525 -0.8336,0.66704 -2.27965,-1.33394 -3.22415,-2.66776 -0.94462,-1.33419 -5.00117,-3.39049 -8.11407,-2.27857 -3.11278,1.11193 -5.78018,1.93326 -5.3359,2.96773 0.44416,1.03423 5.78018,-0.96602 7.78116,-0.85537 2.00098,0.11088 1.33395,1.33345 -0.55554,2.77877 -1.88972,1.44532 -2.11247,3.22379 -0.11137,4.33535 2.00086,1.11205 4.446,1.2233 5.0025,0.55639 0.55615,-0.66703 -1.00055,-5.0025 2.77927,-3.1129 3.77981,1.8896 6.89259,3.00214 3.77981,5.78091 -3.1129,2.77854 -6.66996,5.89229 -6.78134,7.67028 -0.11137,1.77822 1.11205,3.22452 0.44501,3.33516 -0.66703,0.11065 -1.27923,-0.72236 -1.72363,-1.33419 -0.44416,-0.61146 -2.50119,-0.83348 -3.50162,-0.44477 -1.00055,0.38872 -2.89064,1.88961 -1.83428,3.33493 1.05648,1.44556 2.50046,0.77767 3.94602,1.44483 1.44532,0.66703 2.79313,3.20567 2.51639,3.77945 -0.27673,0.57353 -1.50878,-0.15272 -2.51639,-2.11187 -1.00784,-1.95939 -2.89805,-0.66703 -4.22798,-1.00055 -1.33006,-0.33339 -2.33061,-0.55566 -3.66467,-2.89027 -1.33407,-2.33438 -4.09595,-2.98767 -5.22453,-4.33535 -3.23291,-3.86043 -3.00165,-6.7811 -3.66856,-8.11505 -0.66703,-1.3343 -2.39371,-3.5139 -2.39371,-3.5139 z"
         id="path11-8" />
      <path
         inkscape:connector-curvature="0"
         style="fill:#48b19b"
         d="m 333.69761,427.76711 c 0,0 3.33504,0.33291 5.0025,1.77847 1.66746,1.44532 1.89021,2.00146 4.44685,2.55712 2.55663,0.55542 3.66856,2.00025 2.00097,4.77976 -1.66746,2.77914 -4.66947,7.22599 -6.1143,8.56005 -1.44471,1.33419 -3.22355,2.44575 -3.89058,4.66899 -0.66692,2.223 -0.88967,3.55621 0.55565,4.44624 0,0 -0.77767,1.89009 -2.55651,-0.55566 -1.77896,-2.44599 -0.33364,-5.3359 0,-7.00348 0.3334,-1.66734 1.22257,-6.66936 0.66679,-7.89278 -0.55542,-1.22306 -3.11278,-2.00146 -3.77981,-4.55786 -0.66704,-2.55651 0.50033,-7.53166 3.66844,-6.78085 z"
         id="path13-0" />
      <path
         inkscape:connector-curvature="0"
         style="opacity:0.6;fill:#253744;enable-background:new"
         d="m 308.6863,405.3128 c 12.15578,-12.15603 31.86365,-12.15578 44.01956,0 12.15591,12.15554 12.15591,31.86366 1.2e-4,44.01944 0,0 14.12223,-18.67474 -5.87186,-38.66883 C 326.83991,390.6692 308.6863,405.3128 308.6863,405.3128 Z"
         id="path15-2" />
    </g>
  </g>
</svg>
